HIERARCHY
ROOT Hips
{
	OFFSET -0.001795 -0.223333 0.028219
	CHANNELS 6 Xposition Yposition Zposition Zrotation Yrotation Xrotation 
	JOINT LeftUpLeg
	{
		OFFSET 0.069520 -0.091406 -0.006815
		CHANNELS 3 Zrotation Yrotation Xrotation
		JOINT LeftLeg
		{
			OFFSET 0.034277 -0.375199 -0.004496
			CHANNELS 3 Zrotation Yrotation Xrotation
			JOINT LeftFoot
			{
				OFFSET -0.013596 -0.397961 -0.043693
				CHANNELS 3 Zrotation Yrotation Xrotation
				JOINT LeftToe
				{
					OFFSET 0.026358 -0.055791 0.119288
					CHANNELS 3 Zrotation Yrotation Xrotation
					End Site
					{
						OFFSET 0.000000 0.000000 0.000000
					}
				}
			}
		}
	}
	JOINT RightUpLeg
	{
		OFFSET -0.067670 -0.090522 -0.004320
		CHANNELS 3 Zrotation Yrotation Xrotation
		JOINT RightLeg
		{
			OFFSET -0.038290 -0.382569 -0.008850
			CHANNELS 3 Zrotation Yrotation Xrotation
			JOINT RightFoot
			{
				OFFSET 0.015774 -0.398415 -0.042312
				CHANNELS 3 Zrotation Yrotation Xrotation
				JOINT RightToe
				{
					OFFSET -0.025372 -0.048144 0.123348
					CHANNELS 3 Zrotation Yrotation Xrotation
					End Site
					{
						OFFSET 0.000000 0.000000 0.000000
					}
				}
			}
		}
	}
	JOINT Spine
	{
		OFFSET -0.002533 0.108963 -0.026696
		CHANNELS 3 Zrotation Yrotation Xrotation
		JOINT Spine1
		{
			OFFSET 0.005487 0.135180 0.001092
			CHANNELS 3 Zrotation Yrotation Xrotation
			JOINT Spine2
			{
				OFFSET 0.001457 0.052922 0.025425
				CHANNELS 3 Zrotation Yrotation Xrotation
				JOINT Neck
				{
					OFFSET -0.002778 0.213870 -0.042857
					CHANNELS 3 Zrotation Yrotation Xrotation
					JOINT Head
					{
						OFFSET 0.005152 0.064970 0.051349
						CHANNELS 3 Zrotation Yrotation Xrotation
						End Site
						{
							OFFSET 0.000000 0.000000 0.000000
						}
					}
				}
				JOINT LeftShoulder
				{
					OFFSET 0.078845 0.121749 -0.034090
					CHANNELS 3 Zrotation Yrotation Xrotation
					JOINT LeftArm
					{
						OFFSET 0.090977 0.030469 -0.008868
						CHANNELS 3 Zrotation Yrotation Xrotation
						JOINT LeftForeArm
						{
							OFFSET 0.259612 -0.012772 -0.027456
							CHANNELS 3 Zrotation Yrotation Xrotation
							JOINT LeftHand
							{
								OFFSET 0.249234 0.008986 -0.001171
								CHANNELS 3 Zrotation Yrotation Xrotation
								End Site
								{
									OFFSET 0.000000 0.000000 0.000000
								}
							}
						}
					}
				}
				JOINT RightShoulder
				{
					OFFSET -0.081759 0.118833 -0.038615
					CHANNELS 3 Zrotation Yrotation Xrotation
					JOINT RightArm
					{
						OFFSET -0.096012 0.032551 -0.009143
						CHANNELS 3 Zrotation Yrotation Xrotation
						JOINT RightForeArm
						{
							OFFSET -0.253742 -0.013329 -0.021401
							CHANNELS 3 Zrotation Yrotation Xrotation
							JOINT RightHand
							{
								OFFSET -0.255298 0.007772 -0.005559
								CHANNELS 3 Zrotation Yrotation Xrotation
								End Site
								{
									OFFSET 0.000000 0.000000 0.000000
								}
							}
						}
					}
				}
			}
		}
	}
}
MOTION
Frames: 6
Frame Time: 0.050000
0.232630 0.944156 1.223827 -0.955538 -26.791255 3.224227 25.168309 3.671394 -7.282121 -1.200105 0.930639 17.517670 2.864021 8.440512 31.278560 0.000000 0.000000 0.000000 -9.548624 1.198559 -10.217640 4.541223 0.421825 14.374337 -5.565297 -14.769255 4.670790 0.000000 0.000000 0.000000 4.959709 -0.777547 15.306149 -4.153054 1.395779 -29.379270 -2.387484 10.181754 31.486796 11.667449 -3.662839 -40.539566 0.000000 0.000000 0.000000 -19.334205 1.166144 0.355128 -50.339901 -14.463250 -3.191127 5.903788 -35.096921 1.045859 0.000000 0.000000 0.000000 23.936432 -7.805325 -8.512629 63.553007 6.585425 -5.680523 -0.956707 36.245305 1.174497 0.000000 0.000000 0.000000 
0.196552 0.948655 1.212384 -0.273522 -28.645985 3.698853 24.114490 4.578809 -12.561998 0.052455 1.433571 25.266620 2.682267 7.972459 29.925981 0.000000 0.000000 0.000000 -7.456010 1.178735 -10.465276 4.812492 0.398826 13.737845 -6.168718 -15.604892 4.100045 0.000000 0.000000 0.000000 4.716014 -0.700291 15.741852 -3.776277 1.421527 -30.705247 -2.004742 10.771531 31.845708 10.792757 -3.355995 -40.746975 0.000000 0.000000 0.000000 -20.102025 2.742858 -0.371428 -50.523364 -11.505184 -4.470958 3.396453 -37.815659 2.137024 0.000000 0.000000 0.000000 21.533395 -6.341331 -7.188914 63.840049 8.504558 -4.820813 0.159335 37.518534 1.495914 0.000000 0.000000 0.000000 
0.166824 0.952782 1.204883 0.740357 -31.379526 3.147751 20.311862 4.828594 -17.902970 1.337671 2.315367 32.769233 1.757489 5.911218 23.718541 0.000000 0.000000 0.000000 -6.094776 1.064615 -9.160668 3.464784 0.602779 13.065748 -4.529105 -11.722557 2.945623 0.000000 0.000000 0.000000 5.095259 -0.653298 16.855199 -4.285310 1.553081 -31.304109 -1.072717 13.205122 32.861085 11.422615 -3.480179 -41.261716 0.000000 0.000000 0.000000 -19.456579 2.439743 -0.329429 -51.841013 -10.140564 -5.138817 1.644381 -38.183670 2.739845 0.000000 0.000000 0.000000 21.468138 -7.027220 -7.297268 63.179586 8.963661 -4.700669 1.948720 39.152862 2.317929 0.000000 0.000000 0.000000 
0.141051 0.956397 1.201513 1.876751 -33.643702 2.753945 14.131739 3.879838 -22.608878 2.232182 3.049638 36.760739 2.636224 6.054645 14.960024 0.000000 0.000000 0.000000 -4.873369 0.913284 -7.676199 2.505276 0.635880 11.605004 -3.868540 -10.073885 2.659753 0.000000 0.000000 0.000000 4.801494 -0.508193 17.639641 -4.746548 1.699748 -32.001196 0.338247 14.106006 33.674242 11.736121 -3.953156 -39.973234 0.000000 0.000000 0.000000 -18.166827 2.172093 -0.053924 -54.270475 -8.521658 -5.898137 0.677919 -37.925945 3.150249 0.000000 0.000000 0.000000 20.627919 -7.009288 -7.194117 63.405304 9.739891 -4.425798 1.020389 39.657098 1.988406 0.000000 0.000000 0.000000 
0.117218 0.958473 1.201802 2.683914 -36.110673 2.095950 9.031458 3.034913 -26.386402 2.128041 3.480615 36.631142 2.306258 5.022769 10.892710 0.000000 0.000000 0.000000 -3.534658 0.749043 -6.419443 0.882901 0.821499 11.158663 -3.111180 -8.097455 2.196556 0.000000 0.000000 0.000000 4.777035 -0.345870 18.911445 -4.106703 1.663005 -32.539228 0.688075 15.114751 34.227333 11.589238 -3.992400 -39.871194 0.000000 0.000000 0.000000 -17.730357 2.734010 -0.235835 -55.439761 -8.057327 -6.163867 -0.997314 -36.748837 3.642968 0.000000 0.000000 0.000000 20.204273 -6.652801 -7.020577 63.198102 10.363429 -4.155141 0.121425 38.539461 1.562107 0.000000 0.000000 0.000000 
0.093715 0.958220 1.205786 2.720443 -39.648057 2.160274 4.805263 2.394074 -28.958343 0.890856 3.471852 31.674914 2.845736 5.401047 9.303945 0.000000 0.000000 0.000000 -2.071126 0.519583 -4.555760 -0.299250 0.884436 10.196310 -1.313454 -4.413648 2.281749 0.000000 0.000000 0.000000 3.978339 -0.020706 19.771108 -2.811360 1.480343 -32.643592 2.059546 16.877761 34.569722 11.293726 -4.071505 -39.099340 0.000000 0.000000 0.000000 -17.182251 3.096719 -0.333813 -56.806157 -7.003194 -6.645523 -0.654511 -36.244712 3.560247 0.000000 0.000000 0.000000 20.209245 -7.144237 -7.443850 63.222417 10.385763 -4.142859 -1.627767 38.807320 0.911597 0.000000 0.000000 0.000000 
